<?xml version="1.0" encoding="utf-8"?>
<!-- Generator: Adobe Illustrator 19.0.0, SVG Export Plug-In . SVG Version: 6.00 Build 0)  -->
<svg version="1.1" id="Layer_1" xmlns="http://www.w3.org/2000/svg" xmlns:xlink="http://www.w3.org/1999/xlink" x="0px" y="0px"
	 viewBox="0 0 301.8 28.2" style="enable-background:new 0 0 301.8 28.2;" xml:space="preserve">
<style type="text/css">
	.st0{fill:#FFFFFF;}
</style>
<g>
	<path class="st0" d="M3.1,2v11.3c0,4.3,1.9,6.1,4.4,6.1c2.8,0,4.6-1.9,4.6-6.1V2h2.5v11.1c0,5.8-3.1,8.2-7.2,8.2
		c-3.9,0-6.8-2.2-6.8-8.1V2H3.1z M18.8,11.1c0-1.4,0-2.6-0.1-3.7h2.2l0.1,2.3h0.1c0.7-1.3,2.3-2.6,4.5-2.6c1.9,0,4.8,1.1,4.8,5.8
		v8.2H28v-7.9c0-2.2-0.8-4-3.2-4c-1.6,0-2.9,1.2-3.3,2.5c-0.1,0.3-0.2,0.7-0.2,1.2v8.2h-2.5V11.1z M46.3,1v16.5c0,1.2,0,2.6,0.1,3.5
		h-2.2l-0.1-2.4H44c-0.8,1.5-2.4,2.7-4.7,2.7c-3.3,0-5.8-2.8-5.8-6.9c0-4.5,2.8-7.3,6.1-7.3c2.1,0,3.5,1,4.1,2.1h0.1V1H46.3z
		 M43.8,13c0-0.3,0-0.7-0.1-1C43.3,10.3,42,9,40.1,9c-2.6,0-4.1,2.3-4.1,5.3c0,2.8,1.4,5.1,4,5.1c1.7,0,3.2-1.1,3.6-3
		c0.1-0.3,0.1-0.7,0.1-1.1V13z M51.8,14.7c0.1,3.4,2.2,4.7,4.7,4.7c1.8,0,2.9-0.3,3.8-0.7l0.4,1.8c-0.9,0.4-2.4,0.8-4.5,0.8
		c-4.2,0-6.7-2.8-6.7-6.9s2.4-7.4,6.4-7.4c4.5,0,5.6,3.9,5.6,6.4c0,0.5-0.1,0.9-0.1,1.2H51.8z M59.1,12.9c0-1.6-0.6-4-3.4-4
		c-2.5,0-3.6,2.3-3.8,4H59.1z M64.6,11.7c0-1.6,0-3-0.1-4.3h2.2l0.1,2.7h0.1c0.6-1.8,2.1-3,3.8-3c0.3,0,0.5,0,0.7,0.1v2.3
		c-0.3-0.1-0.5-0.1-0.8-0.1c-1.8,0-3,1.3-3.3,3.2C67.1,13,67,13.4,67,13.8v7.3h-2.5V11.7z M85.3,7.4c-0.1,1-0.1,2.1-0.1,3.8v7.9
		c0,3.1-0.6,5.1-1.9,6.2C82,26.6,80,27,78.3,27c-1.6,0-3.4-0.4-4.5-1.1l0.6-1.9c0.9,0.6,2.3,1.1,4,1.1c2.5,0,4.4-1.3,4.4-4.8v-1.5
		h-0.1C82,20,80.5,21,78.4,21c-3.4,0-5.8-2.9-5.8-6.7c0-4.6,3-7.3,6.2-7.3c2.4,0,3.7,1.2,4.3,2.4h0.1l0.1-2.1H85.3z M82.8,12.8
		c0-0.4,0-0.8-0.1-1.1C82.2,10.2,81,9,79.2,9c-2.4,0-4.1,2-4.1,5.2c0,2.7,1.4,4.9,4,4.9c1.5,0,2.9-1,3.4-2.5
		c0.1-0.4,0.2-0.9,0.2-1.3V12.8z M89.2,11.7c0-1.6,0-3-0.1-4.3h2.2l0.1,2.7h0.1c0.6-1.8,2.1-3,3.8-3c0.3,0,0.5,0,0.7,0.1v2.3
		c-0.3-0.1-0.5-0.1-0.8-0.1c-1.8,0-3,1.3-3.3,3.2c-0.1,0.3-0.1,0.7-0.1,1.2v7.3h-2.5V11.7z M105.8,21.1l-0.2-1.7h-0.1
		c-0.8,1.1-2.2,2-4.2,2c-2.8,0-4.2-1.9-4.2-3.9c0-3.3,2.9-5.1,8.2-5.1v-0.3c0-1.1-0.3-3.2-3.1-3.2c-1.3,0-2.6,0.4-3.6,1l-0.6-1.6
		c1.1-0.7,2.8-1.2,4.5-1.2c4.2,0,5.2,2.9,5.2,5.6v5.1c0,1.2,0.1,2.3,0.2,3.3H105.8z M105.5,14.1c-2.7-0.1-5.8,0.4-5.8,3.1
		c0,1.6,1.1,2.4,2.3,2.4c1.8,0,2.9-1.1,3.3-2.3c0.1-0.3,0.1-0.5,0.1-0.8V14.1z M123.7,1v16.5c0,1.2,0,2.6,0.1,3.5h-2.2l-0.1-2.4
		h-0.1c-0.8,1.5-2.4,2.7-4.7,2.7c-3.3,0-5.8-2.8-5.8-6.9c0-4.5,2.8-7.3,6.1-7.3c2.1,0,3.5,1,4.1,2.1h0.1V1H123.7z M121.2,13
		c0-0.3,0-0.7-0.1-1c-0.4-1.6-1.7-2.9-3.6-2.9c-2.6,0-4.1,2.3-4.1,5.3c0,2.8,1.4,5.1,4,5.1c1.7,0,3.2-1.1,3.6-3
		c0.1-0.3,0.1-0.7,0.1-1.1V13z M139.2,17.3c0,1.4,0,2.7,0.1,3.7h-2.2l-0.1-2.2H137c-0.6,1.1-2.1,2.5-4.5,2.5c-2.1,0-4.7-1.2-4.7-6
		v-8h2.5V15c0,2.6,0.8,4.3,3,4.3c1.7,0,2.8-1.2,3.3-2.3c0.1-0.4,0.2-0.8,0.2-1.3V7.4h2.5V17.3z M150.9,21.1l-0.2-1.7h-0.1
		c-0.8,1.1-2.2,2-4.2,2c-2.8,0-4.2-1.9-4.2-3.9c0-3.3,2.9-5.1,8.2-5.1v-0.3c0-1.1-0.3-3.2-3.1-3.2c-1.3,0-2.6,0.4-3.6,1l-0.6-1.6
		c1.1-0.7,2.8-1.2,4.5-1.2c4.2,0,5.2,2.9,5.2,5.6v5.1c0,1.2,0.1,2.3,0.2,3.3H150.9z M150.6,14.1c-2.7-0.1-5.8,0.4-5.8,3.1
		c0,1.6,1.1,2.4,2.3,2.4c1.8,0,2.9-1.1,3.3-2.3c0.1-0.3,0.1-0.5,0.1-0.8V14.1z M159.9,3.5v3.9h3.6v1.9h-3.6v7.4
		c0,1.7,0.5,2.7,1.9,2.7c0.6,0,1.1-0.1,1.4-0.2l0.1,1.9c-0.5,0.2-1.2,0.3-2.2,0.3c-1.2,0-2.1-0.4-2.7-1c-0.7-0.7-1-1.9-1-3.6V9.3
		h-2.1V7.4h2.1V4.1L159.9,3.5z M167.4,14.7c0.1,3.4,2.2,4.7,4.7,4.7c1.8,0,2.9-0.3,3.8-0.7l0.4,1.8c-0.9,0.4-2.4,0.8-4.5,0.8
		c-4.2,0-6.7-2.8-6.7-6.9s2.4-7.4,6.4-7.4c4.5,0,5.6,3.9,5.6,6.4c0,0.5-0.1,0.9-0.1,1.2H167.4z M174.7,12.9c0-1.6-0.6-4-3.4-4
		c-2.5,0-3.6,2.3-3.8,4H174.7z M196.1,12.1h-7.4V19h8.2v2.1h-10.7V2h10.3v2.1h-7.8v6h7.4V12.1z M211.8,1v16.5c0,1.2,0,2.6,0.1,3.5
		h-2.2l-0.1-2.4h-0.1c-0.8,1.5-2.4,2.7-4.7,2.7c-3.3,0-5.8-2.8-5.8-6.9c0-4.5,2.8-7.3,6.1-7.3c2.1,0,3.5,1,4.1,2.1h0.1V1H211.8z
		 M209.3,13c0-0.3,0-0.7-0.1-1c-0.4-1.6-1.7-2.9-3.6-2.9c-2.6,0-4.1,2.3-4.1,5.3c0,2.8,1.4,5.1,4,5.1c1.7,0,3.2-1.1,3.6-3
		c0.1-0.3,0.1-0.7,0.1-1.1V13z M227.3,17.3c0,1.4,0,2.7,0.1,3.7h-2.2l-0.1-2.2H225c-0.6,1.1-2.1,2.5-4.5,2.5c-2.1,0-4.7-1.2-4.7-6
		v-8h2.5V15c0,2.6,0.8,4.3,3,4.3c1.7,0,2.8-1.2,3.3-2.3c0.1-0.4,0.2-0.8,0.2-1.3V7.4h2.5V17.3z M241.2,20.6
		c-0.6,0.3-2.1,0.8-3.9,0.8c-4.1,0-6.8-2.8-6.8-7c0-4.2,2.9-7.3,7.3-7.3c1.5,0,2.8,0.4,3.4,0.7l-0.6,1.9c-0.6-0.3-1.5-0.6-2.9-0.6
		c-3.1,0-4.8,2.3-4.8,5.2c0,3.2,2,5.1,4.7,5.1c1.4,0,2.3-0.4,3-0.7L241.2,20.6z M251.6,21.1l-0.2-1.7h-0.1c-0.8,1.1-2.2,2-4.2,2
		c-2.8,0-4.2-1.9-4.2-3.9c0-3.3,2.9-5.1,8.2-5.1v-0.3c0-1.1-0.3-3.2-3.1-3.2c-1.3,0-2.6,0.4-3.6,1L244,8.3c1.1-0.7,2.8-1.2,4.5-1.2
		c4.2,0,5.2,2.9,5.2,5.6v5.1c0,1.2,0.1,2.3,0.2,3.3H251.6z M251.3,14.1c-2.7-0.1-5.8,0.4-5.8,3.1c0,1.6,1.1,2.4,2.3,2.4
		c1.8,0,2.9-1.1,3.3-2.3c0.1-0.3,0.1-0.5,0.1-0.8V14.1z M260.6,3.5v3.9h3.6v1.9h-3.6v7.4c0,1.7,0.5,2.7,1.9,2.7
		c0.6,0,1.1-0.1,1.4-0.2L264,21c-0.5,0.2-1.2,0.3-2.2,0.3c-1.2,0-2.1-0.4-2.7-1c-0.7-0.7-1-1.9-1-3.6V9.3H256V7.4h2.1V4.1L260.6,3.5
		z M269.7,3.6c0,0.8-0.6,1.5-1.6,1.5c-0.9,0-1.5-0.7-1.5-1.5c0-0.9,0.6-1.6,1.6-1.6C269.1,2,269.7,2.7,269.7,3.6z M266.9,21.1V7.4
		h2.5v13.7H266.9z M285.9,14.1c0,5.1-3.5,7.3-6.8,7.3c-3.7,0-6.6-2.7-6.6-7c0-4.6,3-7.3,6.8-7.3C283.2,7.1,285.9,9.9,285.9,14.1z
		 M275.1,14.3c0,3,1.7,5.3,4.2,5.3c2.4,0,4.2-2.2,4.2-5.3c0-2.3-1.2-5.3-4.1-5.3S275.1,11.7,275.1,14.3z M289,11.1
		c0-1.4,0-2.6-0.1-3.7h2.2l0.1,2.3h0.1c0.7-1.3,2.3-2.6,4.5-2.6c1.9,0,4.8,1.1,4.8,5.8v8.2h-2.5v-7.9c0-2.2-0.8-4-3.2-4
		c-1.6,0-2.9,1.2-3.3,2.5c-0.1,0.3-0.2,0.7-0.2,1.2v8.2H289V11.1z"/>
</g>
</svg>
